REM DIRINDEX 1\2,1\3,1\4,1\5
REM DIRNAME "folder01","folder02","folder03","folder04","folder05"
TITLE ""
FILE "P1Q_t_0410-0419.mp3" MP3
  TRACK 01 AUDIO
    TITLE "3:cjc173_2156"
    INDEX 01 00:00:00
  TRACK 02 AUDIO
    TITLE "0:"
    INDEX 01 00:01:33
  TRACK 03 AUDIO
    TITLE "4:cjc173_2157"
    INDEX 01 00:01:57
  TRACK 04 AUDIO
    TITLE "0:"
    INDEX 01 00:03:32
  TRACK 05 AUDIO
    TITLE "5:cjc173_2158"
    INDEX 01 00:03:52
  TRACK 06 AUDIO
    TITLE "0:"
    INDEX 01 00:07:63
  TRACK 07 AUDIO
    TITLE "3:cjc173_2159"
    INDEX 01 00:08:35
  TRACK 08 AUDIO
    TITLE "0:"
    INDEX 01 00:09:62
  TRACK 09 AUDIO
    TITLE "4:cjc173_2160"
    INDEX 01 00:10:09
  TRACK 10 AUDIO
    TITLE "0:"
    INDEX 01 00:13:19
  TRACK 11 AUDIO
    TITLE "5:cjc173_2161"
    INDEX 01 00:13:40
  TRACK 12 AUDIO
    TITLE "0:"
    INDEX 01 00:17:60
  TRACK 13 AUDIO
    TITLE "3:cjc173_2162"
    INDEX 01 00:18:30
  TRACK 14 AUDIO
    TITLE "0:"
    INDEX 01 00:19:51
  TRACK 15 AUDIO
    TITLE "4:cjc173_2163"
    INDEX 01 00:19:74
  TRACK 16 AUDIO
    TITLE "0:"
    INDEX 01 00:22:49
  TRACK 17 AUDIO
    TITLE "5:cjc173_2164"
    INDEX 01 00:22:69
  TRACK 18 AUDIO
    TITLE "0:"
    INDEX 01 00:29:20
  TRACK 19 AUDIO
    TITLE "3:cjc173_2165"
    INDEX 01 00:29:67
  TRACK 20 AUDIO
    TITLE "0:"
    INDEX 01 00:31:05
  TRACK 21 AUDIO
    TITLE "4:cjc173_2166"
    INDEX 01 00:31:27
  TRACK 22 AUDIO
    TITLE "0:"
    INDEX 01 00:34:25
  TRACK 23 AUDIO
    TITLE "5:cjc173_2167"
    INDEX 01 00:34:44
  TRACK 24 AUDIO
    TITLE "0:"
    INDEX 01 00:38:42
  TRACK 25 AUDIO
    TITLE "3:cjc173_2168"
    INDEX 01 00:39:12
  TRACK 26 AUDIO
    TITLE "0:"
    INDEX 01 00:40:29
  TRACK 27 AUDIO
    TITLE "4:cjc173_2169"
    INDEX 01 00:40:51
  TRACK 28 AUDIO
    TITLE "0:"
    INDEX 01 00:44:10
  TRACK 29 AUDIO
    TITLE "5:cjc173_2170"
    INDEX 01 00:44:31
  TRACK 30 AUDIO
    TITLE "0:"
    INDEX 01 00:48:19
  TRACK 31 AUDIO
    TITLE "3:cjc173_2171"
    INDEX 01 00:48:66
  TRACK 32 AUDIO
    TITLE "0:"
    INDEX 01 00:50:04
  TRACK 33 AUDIO
    TITLE "4:cjc173_2172"
    INDEX 01 00:50:26
  TRACK 34 AUDIO
    TITLE "0:"
    INDEX 01 00:53:05
  TRACK 35 AUDIO
    TITLE "5:cjc173_2173"
    INDEX 01 00:53:24
  TRACK 36 AUDIO
    TITLE "0:"
    INDEX 01 00:56:58
  TRACK 37 AUDIO
    TITLE "3:cjc173_2174"
    INDEX 01 00:57:28
  TRACK 38 AUDIO
    TITLE "0:"
    INDEX 01 00:58:41
  TRACK 39 AUDIO
    TITLE "4:cjc173_2175"
    INDEX 01 00:58:61
  TRACK 40 AUDIO
    TITLE "0:"
    INDEX 01 01:03:28
  TRACK 41 AUDIO
    TITLE "5:cjc173_2176"
    INDEX 01 01:03:48
  TRACK 42 AUDIO
    TITLE "0:"
    INDEX 01 01:07:36
  TRACK 43 AUDIO
    TITLE "3:cjc173_2177"
    INDEX 01 01:08:08
  TRACK 44 AUDIO
    TITLE "0:"
    INDEX 01 01:09:25
  TRACK 45 AUDIO
    TITLE "4:cjc173_2178"
    INDEX 01 01:09:49
  TRACK 46 AUDIO
    TITLE "0:"
    INDEX 01 01:15:20
  TRACK 47 AUDIO
    TITLE "5:cjc173_2179"
    INDEX 01 01:15:39
  TRACK 48 AUDIO
    TITLE "0:"
    INDEX 01 01:20:68
  TRACK 49 AUDIO
    TITLE "3:cjc173_2180"
    INDEX 01 01:21:38
  TRACK 50 AUDIO
    TITLE "0:"
    INDEX 01 01:22:67
  TRACK 51 AUDIO
    TITLE "4:cjc173_2181"
    INDEX 01 01:23:16
  TRACK 52 AUDIO
    TITLE "0:"
    INDEX 01 01:25:36
  TRACK 53 AUDIO
    TITLE "5:cjc173_2182"
    INDEX 01 01:25:58
  TRACK 54 AUDIO
    TITLE "0:"
    INDEX 01 01:30:16
  TRACK 55 AUDIO
    TITLE "3:cjc173_2183"
    INDEX 01 01:30:66
  TRACK 56 AUDIO
    TITLE "0:"
    INDEX 01 01:31:70
  TRACK 57 AUDIO
    TITLE "4:cjc173_2184"
    INDEX 01 01:32:16
  TRACK 58 AUDIO
    TITLE "0:"
    INDEX 01 01:36:26
  TRACK 59 AUDIO
    TITLE "5:cjc173_2185"
    INDEX 01 01:36:48
  TRACK 60 AUDIO
    TITLE "0:"
    INDEX 01 01:41:27
